# xmcd
#
# Track frame offsets:
#	150
#	13358
#	24467
#	37443
#	60464
#	76265
#	87593
#	101148
#	119646
#	132427
#	144440
#	156466
#	179376
#	201385
#	222131
#	237860
#	250517
#	272789
#	289302
#	311624
#
# Disc length: 4326 seconds
#
# Revision: 4
# Processed by: cddbd v1.5.2PL0 Copyright (c) Steve Scherf et al.
# Submitted via: audiograbber 1.83.01
#
DISCID=3510e414
DTITLE=Various Artist - Latin Fever CD 3
DYEAR=2012
DGENRE=Latin
TTITLE0=Celina Y Reutilio - Yo Soy El Punto Cubano
TTITLE1=Compay Segundo - La Mujer Del Peso
TTITLE2=Rolando Laserie - Para Mi Isla Un Son
TTITLE3=Juan Formell Y Los Van Man - Hoy Se Cumplen Seis Semanas
TTITLE4=Mongo Santamaria - Monte Adentro
TTITLE5=Tito Puente - Tu No Eres Nadie
TTITLE6=Ibrahim Ferrer - El Platanal De Bartolo
TTITLE7=Danae Ft. Antonio Perez Rodriquez - Por Que
TTITLE8=Miguelito Valdes - Quimbamba
TTITLE9=Roberto Faz - Suena Tu Bongo
TTITLE10=Alfredito Valdez - Pachanga Jump
TTITLE11=Ruben Rodriguez - Raspandura De Miel
TTITLE12=Candido Fabre And Yumiri Y Sus Hermanos - No Se Porque Me Echo Bilongo
TTITLE13=Ruben Rodriguez - Mujer De Mis Recuerdos
TTITLE14=Papi Oviedo And Papa Noel Ft. Cristina Azcuy Garcia - Limpia Mi Son
TTITLE15=Perez Prado - Mambo No 5
TTITLE16=Felix Baloy Ft. William Manuel Valdes Ibanez - Lo Otro Lo Pongo Yo
TTITLE17=Papi Oviedo And Papa Noel Ft. Changuito - No Te Doy
TTITLE18=Juego De Manos Ft. David Alvarez - Mi Velerio
TTITLE19=Celia Cruz - Me Voy A Pinar Del Rio
EXTD=
EXTT0=
EXTT1=
EXTT2=
EXTT3=
EXTT4=
EXTT5=
EXTT6=
EXTT7=
EXTT8=
EXTT9=
EXTT10=
EXTT11=
EXTT12=
EXTT13=
EXTT14=
EXTT15=
EXTT16=
EXTT17=
EXTT18=
EXTT19=
PLAYORDER=
